<?xml version="1.0" encoding="UTF-8" standalone="no"?>
<!-- Created with Inkscape (http://www.inkscape.org/) -->

<svg
   version="1.1"
   id="svg1"
   width="72"
   height="56.067001"
   viewBox="0 0 72 56.067001"
   sodipodi:docname="b@ch.svg"
   inkscape:version="1.4.3 (0d15f75, 2025-12-25)"
   inkscape:export-filename="b@ch.webp"
   inkscape:export-xdpi="506"
   inkscape:export-ydpi="506"
   xmlns:inkscape="http://www.inkscape.org/namespaces/inkscape"
   xmlns:sodipodi="http://sodipodi.sourceforge.net/DTD/sodipodi-0.dtd"
   xmlns="http://www.w3.org/2000/svg"
   xmlns:svg="http://www.w3.org/2000/svg">
  <defs
     id="defs1" />
  <sodipodi:namedview
     id="namedview1"
     pagecolor="#ffffff"
     bordercolor="#000000"
     borderopacity="0.25"
     inkscape:showpageshadow="2"
     inkscape:pageopacity="0.0"
     inkscape:pagecheckerboard="0"
     inkscape:deskcolor="#d1d1d1"
     inkscape:zoom="5.3680556"
     inkscape:cx="82.990944"
     inkscape:cy="25.055627"
     inkscape:window-width="1920"
     inkscape:window-height="991"
     inkscape:window-x="-9"
     inkscape:window-y="-9"
     inkscape:window-maximized="1"
     inkscape:current-layer="g5" />
  <g
     id="g5"
     transform="translate(-28,-43.933101)"
     sodipodi:insensitive="true">
    <path
       id="path4"
       style="fill:#b1b2b3;fill-opacity:1"
       d="m 35.5,60.999507 c -1.282051,0 -1.5,2.833333 -1.5,19.5 0,16.666667 0.217949,19.5 1.5,19.5 1.282051,0 1.5,-2.833333 1.5,-19.5 0,-16.666667 -0.217949,-19.5 -1.5,-19.5 z m 57,0 c -1.282051,0 -1.5,2.833333 -1.5,19.5 0,16.666667 0.217949,19.5 1.5,19.5 1.282051,0 1.5,-2.833333 1.5,-19.5 0,-16.666667 -0.217949,-19.5 -1.5,-19.5 z m -63,7 c -1.253333,0 -1.5,2.055556 -1.5,12.5 0,10.444444 0.246667,12.5 1.5,12.5 1.253333,0 1.5,-2.055556 1.5,-12.5 0,-10.444444 -0.246667,-12.5 -1.5,-12.5 z m 69,0 c -1.253333,0 -1.5,2.055556 -1.5,12.5 0,10.444444 0.246667,12.5 1.5,12.5 1.253333,0 1.5,-2.055556 1.5,-12.5 0,-10.444444 -0.246667,-12.5 -1.5,-12.5 z"
       sodipodi:insensitive="true" />
    <path
       style="fill:#b09601;fill-opacity:1"
       d="M 60,94.430426 V 88.860851 L 70.452194,83.930569 80.904389,79.000286 78.443777,74.250143 C 77.09044,71.637564 74.705943,65 73.144893,59.5 l -2.838272,-10 H 63.5 56.693379 L 53.979846,59 C 51.721987,66.904702 49.610299,72.605258 47.219399,77.25 47.007063,77.6625 49.795833,78 53.416667,78 H 60 v -3.5 c 0,-3.084933 0.302395,-3.5 2.549904,-3.5 2.472335,0 2.540781,0.174915 2.25,5.75 L 64.5,82.5 h -12 c -11.649727,0 -12.009248,-0.06507 -12.316815,-2.229123 -0.177096,-1.246052 0.792047,-3.682916 2.197541,-5.525613 2.334775,-3.061048 5.189484,-10.917648 9.094226,-25.028714 L 53.075318,43.933101 63.685845,44.21655 74.296372,44.5 77.033,54.76481 c 3.510939,13.169168 4.601332,15.888228 8.270229,20.62306 2.105482,2.717195 2.739225,4.312572 2.10469,5.298324 C 86.908563,81.461943 81.775,84.262458 76,86.90956 l -10.5,4.812913 -0.307498,4.138764 C 64.922202,99.49934 64.589539,100 62.442502,100 60.144862,100 60,99.669675 60,94.430426 Z"
       id="path2"
       inkscape:label="b@ch"
       sodipodi:insensitive="true" />
  </g>
</svg>
